<svg width="30" height="34" viewBox="0 0 30 34" fill="none" xmlns="http://www.w3.org/2000/svg">
<g clip-path="url(#clip0_12_322)">
<path d="M9.68717 4.24655C9.68717 3.7043 9.63574 3.2386 9.69575 2.78779C9.89506 1.32692 10.9109 0.19989 12.3768 0.09782C14.1149 -0.0233883 15.8745 -0.0382735 17.6104 0.09782C19.2585 0.225408 20.3344 1.59485 20.3494 3.24073C20.3516 3.55545 20.3494 3.87016 20.3494 4.20614C21.0309 4.2508 21.6675 4.28695 22.3018 4.33161C26.0674 4.59741 29.4 7.50429 29.8972 11.6147C29.9615 12.14 29.9894 12.6737 29.9894 13.2032C29.9958 18.6618 29.9958 24.1205 29.9915 29.577C29.9915 31.6588 28.7228 33.3472 26.7853 33.8278C26.3224 33.9426 25.8338 33.9936 25.3558 33.9936C18.4634 34.0043 11.571 34.0021 4.6786 34C1.83248 34 0.0150773 32.201 0.0150773 29.3898C0.0150773 23.844 -0.0385018 18.2961 0.0343657 12.7503C0.0815153 9.10977 1.80891 6.44318 5.19939 4.92489C6.33955 4.41454 7.56544 4.2827 8.80205 4.24867C9.06566 4.24229 9.32927 4.24867 9.68289 4.24867L9.68717 4.24655ZM5.37727 31.8884C5.37727 31.6226 5.37727 31.4142 5.37727 31.2037C5.37727 27.9779 5.37727 24.7541 5.37727 21.5283C5.37727 18.8511 7.21182 17.0202 9.91864 17.0117C13.3113 17.0011 16.7039 17.0011 20.0965 17.0117C22.8033 17.0202 24.6357 18.8511 24.6379 21.5262C24.64 24.769 24.6379 28.0119 24.6379 31.2547C24.6379 31.4589 24.6379 31.663 24.6379 31.8969C25.0558 31.8969 25.3923 31.9033 25.7309 31.8969C27.0468 31.8693 27.8848 31.0123 27.8848 29.7003C27.8848 24.0822 27.8869 18.4662 27.8848 12.8481C27.8826 9.2012 25.2487 6.4283 21.5732 6.36663C17.199 6.29433 12.8226 6.29646 8.45057 6.36663C4.90363 6.42404 2.16038 9.16505 2.14538 12.5823C2.11752 18.3407 2.13467 24.1013 2.13681 29.8598C2.13681 30.923 2.95764 31.8012 4.02065 31.8842C4.445 31.9161 4.87363 31.8906 5.38156 31.8906L5.37727 31.8884ZM22.4969 25.5261H7.52687V31.8714H22.4969V25.5261ZM7.50329 23.3549H22.5269C22.5269 22.6851 22.5269 22.0514 22.5269 21.4177C22.529 19.9398 21.7125 19.1148 20.2208 19.1084C18.5084 19.102 16.796 19.1084 15.0837 19.1084C13.247 19.1084 11.4081 19.0978 9.57144 19.1169C8.49986 19.1275 7.60402 19.8569 7.51829 20.8478C7.44757 21.6686 7.50329 22.5022 7.50329 23.3571V23.3549ZM18.1612 4.2189C18.1784 4.18701 18.2234 4.14448 18.2255 4.09982C18.2363 3.817 18.2427 3.53206 18.2384 3.24924C18.2255 2.539 17.8762 2.11796 17.1797 2.1052C15.733 2.07543 14.2864 2.07968 12.8398 2.1052C12.2225 2.11583 11.8389 2.48371 11.7918 3.04084C11.7596 3.42361 11.7853 3.81062 11.7853 4.22103H18.1612V4.2189Z" fill="white"/>
<path d="M15.0216 10.6281C13.3628 10.6281 11.704 10.6259 10.043 10.6323C9.81371 10.6323 9.57796 10.6514 9.35721 10.7067C8.73141 10.8662 8.43994 11.4829 8.68426 12.0783C8.92429 12.6652 9.43222 12.7269 9.96587 12.7269C13.3199 12.729 16.674 12.729 20.028 12.7269C20.2402 12.7269 20.4567 12.7056 20.6603 12.6524C21.2861 12.4908 21.5754 11.8763 21.3332 11.2809C21.1039 10.7195 20.6217 10.6344 20.103 10.6344C18.4078 10.6302 16.7125 10.6344 15.0194 10.6344L15.0216 10.6281Z" fill="white"/>
<path d="M15.0214 10.6281C16.7166 10.6281 18.4119 10.6259 20.105 10.6281C20.6236 10.6281 21.1058 10.7131 21.3352 11.2745C21.5773 11.8678 21.288 12.4845 20.6622 12.6461C20.4586 12.6992 20.24 12.7205 20.03 12.7205C16.6759 12.7247 13.3219 12.7247 9.96782 12.7205C9.43418 12.7205 8.92625 12.661 8.68621 12.0719C8.44189 11.4786 8.73336 10.862 9.35916 10.7004C9.57991 10.6451 9.81566 10.6259 10.045 10.6259C11.7038 10.6195 13.3626 10.6217 15.0235 10.6238L15.0214 10.6281Z" fill="white"/>
</g>
<defs>
<clipPath id="clip0_12_322">
<rect width="30" height="34" fill="white"/>
</clipPath>
</defs>
</svg>
