<svg width="39" height="27" viewBox="0 0 39 27" fill="none" xmlns="http://www.w3.org/2000/svg">
<g clip-path="url(#clip0_12_293)">
<path d="M19.5009 27C16.0068 27 12.5128 27.0039 9.0188 26.9981C7.37812 26.9942 6.17052 26.1228 5.94617 24.606C5.80376 23.6477 5.80376 22.6352 5.95007 21.6788C6.18418 20.1447 7.38592 19.2984 9.07928 19.2984C14.3447 19.2965 19.6101 19.2984 24.8755 19.2984C26.5494 19.2984 28.2232 19.2965 29.8971 19.2984C31.9455 19.3023 33.1473 20.4886 33.1492 22.5039C33.1492 22.9541 33.1492 23.4062 33.1492 23.8564C33.1492 25.775 31.928 26.9961 29.9829 27C26.4889 27.0077 22.9949 27.0019 19.5009 27.0019V27ZM19.5048 25.0949C21.6995 25.0949 23.8942 25.0949 26.087 25.0949C27.4195 25.0949 28.7519 25.1007 30.0863 25.093C30.8764 25.0872 31.2198 24.7413 31.2237 23.9723C31.2276 23.3927 31.2666 22.8091 31.2061 22.2353C31.1769 21.9455 31.0325 21.5822 30.814 21.4161C30.5858 21.2422 30.2073 21.2112 29.8932 21.2112C22.9695 21.2016 16.0439 21.2035 9.12025 21.2035C9.02271 21.2035 8.92516 21.1997 8.82762 21.2054C8.13115 21.2441 7.7956 21.5861 7.7878 22.2778C7.78195 22.7763 7.7878 23.2767 7.7878 23.7752C7.7878 24.8051 8.07848 25.093 9.1183 25.0949C12.5811 25.0949 16.042 25.0949 19.5048 25.0949Z" fill="white"/>
<path d="M11.6896 17.3199H9.78946C9.78166 17.1479 9.76605 16.9914 9.76605 16.8368C9.76605 14.4545 9.7563 12.0721 9.76605 9.68977C9.78751 4.82266 13.2367 0.811491 18.0983 0.108185C23.4241 -0.664679 28.1531 2.87697 29.0485 7.86967C29.1753 8.57877 29.2319 9.3072 29.2378 10.0279C29.2612 12.4412 29.2456 14.8544 29.2456 17.3044H27.322C27.322 17.1498 27.322 16.9798 27.322 16.8098C27.322 14.412 27.3279 12.0122 27.322 9.61441C27.3122 5.7984 24.7273 2.6567 20.9368 2.01716C15.9172 1.16894 11.7462 4.71059 11.6935 9.56611C11.6682 11.9639 11.6896 14.3637 11.6896 16.7615C11.6896 16.9354 11.6896 17.1093 11.6896 17.3218V17.3199Z" fill="white"/>
<path d="M19.3935 3.84692C20.0041 3.84886 20.4138 4.18892 20.4625 4.71253C20.5113 5.22262 20.164 5.62838 19.5807 5.72885C19.214 5.79261 18.8355 5.81 18.4785 5.90467C16.828 6.33941 15.6809 7.78273 15.5931 9.49849C15.5502 10.3274 15.004 10.737 14.2704 10.4858C13.8413 10.339 13.6657 10.0028 13.6715 9.5893C13.7164 6.51524 15.9755 4.21983 18.7399 3.92035C18.9662 3.89523 19.1906 3.86818 19.3935 3.84692Z" fill="white"/>
<path d="M37.0396 1.13223C36.9401 1.25589 36.8035 1.57083 36.5655 1.69642C35.2487 2.39007 33.9182 3.05859 32.5721 3.69427C32.0375 3.94739 31.5771 3.74258 31.3469 3.2634C31.1011 2.75331 31.2474 2.30505 31.8054 2.02102C33.0598 1.38341 34.32 0.753528 35.592 0.14683C36.3392 -0.21062 37.0532 0.210591 37.0415 1.13223H37.0396Z" fill="white"/>
<path d="M7.78221 2.65093C7.7588 3.4721 7.21255 3.90877 6.62144 3.73294C6.25467 3.62281 5.90742 3.43539 5.56016 3.26729C4.5418 2.77073 3.52734 2.2703 2.51679 1.76021C2.14222 1.57085 1.89836 1.2733 1.99005 0.826973C2.07394 0.425084 2.28854 0.09082 2.73139 0.0386517C2.95769 0.0116015 3.22106 0.0560411 3.42785 0.154581C4.68226 0.755483 5.93473 1.36218 7.16378 2.01332C7.45641 2.16789 7.6476 2.50602 7.78611 2.65286L7.78221 2.65093Z" fill="white"/>
<path d="M2.88532 11.5388C2.26884 11.5388 1.65041 11.564 1.03589 11.533C0.169697 11.4905 -0.292661 10.7022 0.200911 10.0704C0.378441 9.84241 0.764715 9.66851 1.0632 9.65692C2.2942 9.61055 3.52911 9.62601 4.76011 9.64146C5.42341 9.65113 5.82529 10.024 5.8331 10.5786C5.8409 11.1485 5.42536 11.5215 4.7328 11.5388C4.11632 11.5524 3.49985 11.5427 2.88337 11.5427L2.88532 11.5388Z" fill="white"/>
<path d="M36.0504 11.5388C35.4339 11.5388 34.8155 11.564 34.2009 11.533C33.3347 11.4905 32.8724 10.7022 33.366 10.0704C33.5435 9.84241 33.9298 9.66851 34.2282 9.65692C35.4592 9.61055 36.6941 9.62601 37.9252 9.64146C38.5884 9.65113 38.9903 10.026 38.9981 10.5786C39.0059 11.1485 38.5904 11.5118 37.8978 11.5408C37.8647 11.5408 37.8335 11.5408 37.8003 11.5408C37.217 11.5408 36.6317 11.5408 36.0484 11.5408L36.0504 11.5388Z" fill="white"/>
</g>
<defs>
<clipPath id="clip0_12_293">
<rect width="39" height="27" fill="white"/>
</clipPath>
</defs>
</svg>
