<svg width="42" height="33" viewBox="0 0 42 33" fill="none" xmlns="http://www.w3.org/2000/svg">
<g clip-path="url(#clip0_12_273)">
<path d="M28.3272 6.20752V10.2377H24.2065V6.20752H28.3272Z" fill="white"/>
<path d="M24.2109 12.3861H28.3127V16.4369H24.2109V12.3861Z" fill="white"/>
<path d="M28.3189 18.604V22.6507H24.1982V18.604H28.3189Z" fill="white"/>
<path d="M33.2559 18.5895H37.3576V22.6404H33.2559V18.5895Z" fill="white"/>
<path d="M37.3722 24.8157V28.8479H33.2515V24.8157H37.3722Z" fill="white"/>
<path d="M37.8119 12.3778H41.9999V33H39.9679V14.4332H31.5582V2.04299H21.0199V32.9917H18.9521V0H33.5902V12.3386H35.7357V6.19306H37.8098V12.3778H37.8119Z" fill="white"/>
<path d="M16.7562 20.618H9.44458V32.9938H7.35584V20.6366H0.0967597C0.0399659 20.5684 0 20.5415 0 20.5167C0.0189312 18.5895 -0.0294486 16.6582 0.0862423 14.7351C0.161967 13.4593 0.799319 12.3675 1.82581 11.5445C2.07192 11.3481 2.13502 11.1495 2.10978 10.8394C1.85105 7.64255 3.95242 4.82414 7.12866 4.23689C11.2998 3.4656 14.9031 6.51974 14.6528 10.7856C14.6317 11.133 14.6991 11.3563 14.9725 11.5776C16.0789 12.4688 16.6616 13.6764 16.731 15.0391C16.8257 16.8732 16.7541 18.7177 16.7541 20.618H16.7562ZM14.7075 18.5564C14.7075 17.5246 14.7117 16.53 14.7075 15.5333C14.7012 14.4249 14.3036 13.4489 13.3171 12.9113C12.4147 12.4192 12.3348 11.8216 12.5262 10.9366C12.9006 9.20581 11.9225 7.4275 10.2355 6.57971C8.65999 5.78981 6.6049 6.13513 5.3933 7.38201C4.25322 8.55445 3.9419 9.94815 4.31212 11.4866C4.44884 12.0573 4.29318 12.3757 3.79466 12.6528C3.02479 13.0809 2.33485 13.6764 2.22337 14.5573C2.05509 15.8745 2.0635 17.2123 1.99619 18.5399H7.37056V14.4808H9.44248V18.5543H14.7075V18.5564Z" fill="white"/>
</g>
<defs>
<clipPath id="clip0_12_273">
<rect width="42" height="33" fill="white"/>
</clipPath>
</defs>
</svg>
