<?xml version="1.0" encoding="utf-8"?>
<!-- Generator: Adobe Illustrator 27.6.1, SVG Export Plug-In . SVG Version: 6.00 Build 0)  -->
<svg version="1.1" id="Layer_1" xmlns="http://www.w3.org/2000/svg" xmlns:xlink="http://www.w3.org/1999/xlink" x="0px" y="0px"
	 viewBox="0 0 163.77 164.7" style="enable-background:new 0 0 163.77 164.7;" xml:space="preserve">
<path d="M2.21,35.05c0.14-7.36,3.53-13.4,9.71-17.55c3.18-2.14,6.88-3.1,10.69-3.59c2.15-0.27,4.29-0.23,6.44-0.23
	c11.14-0.01,22.29,0,33.43-0.02c1,0,1.97,0.14,2.93,0.39c3.68,0.95,5.76,3.1,5.88,6.87c0.09,2.52-0.91,4.89-3.33,6.26
	c-1.6,0.91-3.34,1.39-5.21,1.39c-12.39,0-24.77,0-37.16-0.01c-1.17,0-2.32,0.11-3.43,0.43c-3.47,1.01-5.27,3.49-5.39,7.42
	c-0.05,1.82-0.01,3.65-0.01,5.47c0,32.61-0.01,65.21,0,97.82c0,3.41,1.22,6.11,4.55,7.52c1.16,0.49,2.39,0.67,3.62,0.68
	c34.42,0.01,68.85,0.01,103.27,0c4.86,0,8.11-3.32,8.11-8.26c0.01-12.97-0.04-25.94,0.03-38.9c0.03-4.86,3.37-7.02,7.4-7.46
	c2.52-0.27,5.34,1.78,6.37,4.33c0.53,1.3,0.87,2.65,0.87,4.1c-0.02,12.68,0.11,25.36-0.06,38.03c-0.1,7.77-3.1,14.31-9.46,19.05
	c-3.09,2.3-6.68,3.33-10.47,3.78c-2.44,0.29-4.88,0.24-7.32,0.24c-32.44,0.01-64.87,0-97.31,0c-4.53,0-8.91-0.8-12.9-2.98
	c-5.69-3.11-9.08-8.03-10.64-14.28c-0.57-2.27-0.73-4.56-0.73-6.88L2.21,35.05z"/>
<path d="M135.37,18.27c-0.61-0.43-1.11-0.28-1.71-0.28c-9.44-0.01-18.89,0-28.33-0.01c-3.88-0.01-6.55-1.79-7.83-5.15
	c-1.35-3.53,0.48-7.64,4.03-8.94c1.39-0.51,2.84-0.82,4.35-0.82c15.66,0.02,31.31-0.08,46.97,0.06c5.12,0.05,8.45,2.53,8.48,8.51
	c0.07,15.74,0.01,31.48,0.03,47.22c0,1.7-0.39,3.31-1.06,4.8c-1.18,2.62-3.55,3.74-6.22,3.81c-2.54,0.07-4.76-1.01-6.12-3.34
	c-0.85-1.45-1.25-3.03-1.25-4.73c0-9.49-0.01-18.97-0.03-28.46c0-0.58,0.19-1.39-0.4-1.67c-0.72-0.03-1.07,0.5-1.48,0.91
	c-11.67,11.69-23.31,23.42-34.99,35.1C99.19,75.92,88.51,86.5,77.88,97.12c-3.04,3.04-6.06,3.46-9.31,1.75
	c-4.3-2.26-5.17-8.04-1.69-11.61c6.45-6.61,12.98-13.14,19.51-19.67c15.57-15.59,31.16-31.16,46.74-46.74
	C133.94,20.04,134.83,19.25,135.37,18.27z"/>
</svg>
