<?xml version="1.0" encoding="utf-8"?>
<!-- Generator: Adobe Illustrator 27.6.1, SVG Export Plug-In . SVG Version: 6.00 Build 0)  -->
<svg version="1.1" id="Layer_1" xmlns="http://www.w3.org/2000/svg" xmlns:xlink="http://www.w3.org/1999/xlink" x="0px" y="0px"
	 viewBox="0 0 163.8 164.7" style="enable-background:new 0 0 163.8 164.7;" xml:space="preserve">
<style type="text/css">
	.st0{fill:#FFFFFF;}
</style>
<path class="st0" d="M2.2,35c0.1-7.4,3.5-13.4,9.7-17.5c3.2-2.1,6.9-3.1,10.7-3.6c2.1-0.3,4.3-0.2,6.4-0.2c11.1,0,22.3,0,33.4,0
	c1,0,2,0.1,2.9,0.4c3.7,0.9,5.8,3.1,5.9,6.9c0.1,2.5-0.9,4.9-3.3,6.3c-1.6,0.9-3.3,1.4-5.2,1.4c-12.4,0-24.8,0-37.2,0
	c-1.2,0-2.3,0.1-3.4,0.4c-3.5,1-5.3,3.5-5.4,7.4c0,1.8,0,3.7,0,5.5c0,32.6,0,65.2,0,97.8c0,3.4,1.2,6.1,4.6,7.5
	c1.2,0.5,2.4,0.7,3.6,0.7c34.4,0,68.8,0,103.3,0c4.9,0,8.1-3.3,8.1-8.3c0-13,0-25.9,0-38.9c0-4.9,3.4-7,7.4-7.5
	c2.5-0.3,5.3,1.8,6.4,4.3c0.5,1.3,0.9,2.7,0.9,4.1c0,12.7,0.1,25.4-0.1,38c-0.1,7.8-3.1,14.3-9.5,19.1c-3.1,2.3-6.7,3.3-10.5,3.8
	c-2.4,0.3-4.9,0.2-7.3,0.2c-32.4,0-64.9,0-97.3,0c-4.5,0-8.9-0.8-12.9-3c-5.7-3.1-9.1-8-10.6-14.3c-0.6-2.3-0.7-4.6-0.7-6.9L2.2,35z
	"/>
<path class="st0" d="M135.4,18.3c-0.6-0.4-1.1-0.3-1.7-0.3c-9.4,0-18.9,0-28.3,0c-3.9,0-6.6-1.8-7.8-5.1c-1.3-3.5,0.5-7.6,4-8.9
	c1.4-0.5,2.8-0.8,4.3-0.8c15.7,0,31.3-0.1,47,0.1c5.1,0,8.4,2.5,8.5,8.5c0.1,15.7,0,31.5,0,47.2c0,1.7-0.4,3.3-1.1,4.8
	c-1.2,2.6-3.6,3.7-6.2,3.8c-2.5,0.1-4.8-1-6.1-3.3c-0.9-1.5-1.2-3-1.2-4.7c0-9.5,0-19,0-28.5c0-0.6,0.2-1.4-0.4-1.7
	c-0.7,0-1.1,0.5-1.5,0.9c-11.7,11.7-23.3,23.4-35,35.1C99.2,75.9,88.5,86.5,77.9,97.1c-3,3-6.1,3.5-9.3,1.8c-4.3-2.3-5.2-8-1.7-11.6
	c6.4-6.6,13-13.1,19.5-19.7C102,52,117.6,36.4,133.1,20.8C133.9,20,134.8,19.2,135.4,18.3z"/>
</svg>
