<svg width="30" height="30" viewBox="0 0 30 30" fill="none" xmlns="http://www.w3.org/2000/svg">
<path d="M0.0188272 5.98061C0.0376543 4.58999 0.677777 3.46246 1.84506 2.69198C2.44753 2.29734 3.14413 2.10942 3.85956 2.01546C4.25493 1.95908 4.66913 1.97788 5.0645 1.97788C7.15431 1.97788 9.26295 1.97788 11.3528 1.97788C11.541 1.97788 11.7293 1.99667 11.8988 2.05304C12.5954 2.22217 12.9907 2.6356 13.0096 3.3497C13.0284 3.81951 12.8401 4.27052 12.3883 4.53361C12.087 4.70274 11.767 4.7967 11.4092 4.7967C9.07468 4.7967 6.74012 4.7967 4.40555 4.7967C4.17963 4.7967 3.97253 4.81549 3.76543 4.87187C3.10648 5.05979 2.76759 5.52959 2.74876 6.26249C2.74876 6.60075 2.74876 6.9578 2.74876 7.29606C2.74876 13.4223 2.74876 19.5486 2.74876 25.6748C2.74876 26.3137 2.97469 26.8211 3.61481 27.0842C3.84074 27.1782 4.06666 27.2158 4.29259 27.2158C10.7691 27.2158 17.2457 27.2158 23.741 27.2158C24.6636 27.2158 25.266 26.5956 25.266 25.656C25.266 23.213 25.266 20.7888 25.266 18.3459C25.266 17.425 25.9061 17.0304 26.6592 16.9364C27.1299 16.8801 27.6571 17.2747 27.8642 17.7445C27.9583 17.9888 28.0336 18.2519 28.0336 18.515C28.0336 20.9016 28.0524 23.2882 28.0148 25.656C27.996 27.1218 27.4311 28.3433 26.2262 29.2453C25.6426 29.6775 24.9648 29.8655 24.2494 29.9594C23.7975 30.0158 23.3268 29.997 22.875 29.997C16.775 29.997 10.6562 29.997 4.55617 29.997C3.70895 29.997 2.88055 29.8467 2.12747 29.4332C1.05432 28.8507 0.414197 27.9299 0.13179 26.7459C0.0188271 26.3137 0 25.8815 0 25.4493L0.0188272 5.98061Z" fill="white"/>
<path d="M25.0966 2.84231C24.9836 2.76715 24.8895 2.78594 24.7765 2.78594C23.0068 2.78594 21.2182 2.78594 19.4484 2.78594C18.7142 2.78594 18.2058 2.44768 17.9799 1.82754C17.7352 1.16981 18.0741 0.399334 18.733 0.155035C18.9966 0.0610745 19.2602 0.00469805 19.5426 0.00469805C22.4984 0.00469805 25.4355 -0.0140941 28.3913 0.0234902C29.3515 0.0234902 29.9728 0.493294 29.9916 1.62082C30.0105 4.57119 29.9916 7.54036 29.9916 10.4907C29.9916 10.8102 29.9163 11.1109 29.7845 11.3928C29.5586 11.8813 29.1068 12.0881 28.6173 12.1069C28.1466 12.1256 27.7135 11.9189 27.4688 11.4867C27.2994 11.2048 27.2429 10.9229 27.2429 10.6035C27.2429 8.81822 27.2429 7.03297 27.2429 5.24771C27.2429 5.13496 27.2805 4.98462 27.1676 4.92825C27.0358 4.92825 26.9605 5.02221 26.8852 5.09737C24.6824 7.29606 22.4984 9.49474 20.2957 11.6934C18.2812 13.6666 16.2666 15.6586 14.271 17.6505C13.7062 18.2143 13.1225 18.3083 12.52 17.9888C11.7105 17.5566 11.541 16.4854 12.2 15.8089C13.4049 14.5686 14.6475 13.3471 15.8713 12.1069C18.8083 9.17527 21.7453 6.2437 24.6636 3.31212C24.8142 3.16178 24.9836 3.01144 25.0966 2.84231Z" fill="white"/>
</svg>
