<svg width="80" height="80" viewBox="0 0 80 80" fill="none" xmlns="http://www.w3.org/2000/svg">
<path d="M0.0502058 15.9483C0.100411 12.24 1.80741 9.23322 4.92016 7.17861C6.52674 6.12625 8.38435 5.62512 10.2922 5.37456C11.3465 5.22422 12.451 5.27434 13.5053 5.27434C19.0782 5.27434 24.7012 5.27434 30.274 5.27434C30.7761 5.27434 31.2782 5.32445 31.73 5.47479C33.5876 5.9258 34.6419 7.02827 34.6921 8.93254C34.7423 10.1854 34.2403 11.3881 33.0354 12.0896C32.2321 12.5406 31.3786 12.7912 30.4247 12.7912C24.1992 12.7912 17.9736 12.7912 11.7481 12.7912C11.1457 12.7912 10.5934 12.8413 10.0411 12.9917C8.28394 13.4928 7.38024 14.7456 7.33003 16.7C7.33003 17.602 7.33003 18.5541 7.33003 19.4562C7.33003 35.7928 7.33003 52.1295 7.33003 68.4661C7.33003 70.1699 7.9325 71.523 9.6395 72.2246C10.242 72.4751 10.8444 72.5753 11.4469 72.5753C28.7177 72.5753 45.9884 72.5753 63.3094 72.5753C65.7695 72.5753 67.3761 70.9216 67.3761 68.416C67.3761 61.9014 67.3761 55.4369 67.3761 48.9223C67.3761 46.4668 69.083 45.4144 71.0913 45.1638C72.3464 45.0135 73.7522 46.0659 74.3044 47.3187C74.5555 47.9701 74.7563 48.6717 74.7563 49.3733C74.7563 55.7376 74.8065 62.1018 74.7061 68.416C74.6559 72.3248 73.1497 75.5821 69.9365 77.9875C68.3802 79.1401 66.5728 79.6412 64.6649 79.8918C63.46 80.0421 62.2049 79.992 60.9999 79.992C44.7333 79.992 28.4164 79.992 12.1498 79.992C9.89052 79.992 7.68147 79.5911 5.67324 78.4886C2.81152 76.9351 1.10453 74.4796 0.35144 71.3225C0.0502057 70.1699 0 69.0174 0 67.8648L0.0502058 15.9483Z" fill="white"/>
<path d="M66.9242 7.57951C66.623 7.37906 66.3719 7.42917 66.0707 7.42917C61.3514 7.42917 56.5818 7.42917 51.8625 7.42917C49.9045 7.42917 48.5489 6.52715 47.9465 4.87343C47.2938 3.1195 48.1975 1.06489 49.9547 0.413428C50.6576 0.162865 51.3604 0.0125281 52.1135 0.0125281C59.9958 0.0125281 67.8279 -0.0375844 75.7102 0.0626405C78.2707 0.0626405 79.9275 1.31545 79.9777 4.3222C80.0279 12.1899 79.9777 20.1076 79.9777 27.9753C79.9777 28.8272 79.7769 29.629 79.4254 30.3807C78.823 31.6836 77.618 32.2348 76.3127 32.2849C75.0575 32.3351 73.9028 31.7838 73.2501 30.6312C72.7983 29.8795 72.6477 29.1279 72.6477 28.2759C72.6477 23.5153 72.6477 18.7546 72.6477 13.9939C72.6477 13.6932 72.7481 13.2923 72.4468 13.142C72.0954 13.142 71.8946 13.3926 71.6937 13.593C65.8197 19.4562 59.9958 25.3193 54.1218 31.1825C48.7497 36.4443 43.3777 41.7562 38.0559 47.0681C36.5498 48.5715 34.9934 48.822 33.3868 47.9701C31.228 46.8176 30.7761 43.9611 32.5333 42.1571C35.7465 38.8497 39.06 35.5924 42.3234 32.2849C50.1555 24.4674 57.9876 16.6499 65.7695 8.83232C66.1711 8.43142 66.623 8.03052 66.9242 7.57951Z" fill="white"/>
</svg>
