<svg width="37" height="31" viewBox="0 0 37 31" fill="none" xmlns="http://www.w3.org/2000/svg">
<g clip-path="url(#clip0_12_246)">
<path d="M26.9791 31C21.4537 31 16.9585 26.4828 16.9585 20.9305C16.9585 15.3782 21.4537 10.861 26.9791 10.861C32.5044 10.861 36.9997 15.3782 36.9997 20.9305C36.9997 26.4828 32.5044 31 26.9791 31ZM26.9791 13.2777C22.7805 13.2777 19.3634 16.7114 19.3634 20.9305C19.3634 25.1496 22.7805 28.5833 26.9791 28.5833C31.1777 28.5833 34.5947 25.1496 34.5947 20.9305C34.5947 16.7114 31.1777 13.2777 26.9791 13.2777Z" fill="white"/>
<path d="M16.0588 4.10645C16.5979 3.54256 17.0489 3.04915 17.5218 2.5779C21.514 -1.40157 27.8791 -0.688653 30.8492 4.11249C32.1258 6.17473 32.3924 8.43835 31.7791 10.7966C31.7671 10.843 31.741 10.8873 31.719 10.9316C31.713 10.9457 31.6929 10.9517 31.6829 10.9598C30.765 10.6798 29.8491 10.3999 28.8932 10.1079C29.2279 8.89752 29.1657 7.69925 28.7248 6.51709C27.8951 4.28367 25.4902 2.79137 23.1334 3.0129C21.7204 3.14582 20.552 3.72784 19.566 4.74083C18.4237 5.91493 17.2593 7.0689 16.0809 8.25509C15.9386 8.12418 15.8143 8.01946 15.6981 7.90467C14.6339 6.8373 13.5717 5.76993 12.5095 4.70055C10.6056 2.7813 7.80587 2.45706 5.5332 3.89096C2.8557 5.58063 2.19033 9.37079 4.13432 11.8721C4.30868 12.0956 4.49907 12.3111 4.69949 12.5125C8.37103 16.206 12.0426 19.8995 15.7201 23.5849C15.8624 23.7279 16.0769 23.8004 16.3434 23.9535C16.6701 24.7107 17.0569 25.5948 17.4256 26.489C17.4637 26.5816 17.4377 26.7568 17.3715 26.8313C16.9727 27.2804 16.5518 27.7114 16.1109 28.1766C15.9326 28.0155 15.8083 27.9128 15.6941 27.798C11.3592 23.4419 7.00823 19.102 2.69737 14.7237C0.0158647 11.9949 -0.731671 8.74447 0.749371 5.20201C2.00996 2.1872 4.37281 0.416979 7.68161 0.0806577C10.4593 -0.201289 12.7941 0.733162 14.7381 2.71484C15.159 3.1438 15.5658 3.58686 16.0588 4.10645Z" fill="white"/>
<path d="M27.8909 26.1667H25.8848V22.1771H21.8926V20.1431H25.8467V16.1253H27.8889V20.1028H31.8731V22.1368H27.8929V26.1646L27.8909 26.1667Z" fill="white"/>
</g>
<defs>
<clipPath id="clip0_12_246">
<rect width="37" height="31" fill="white"/>
</clipPath>
</defs>
</svg>
