<svg width="36" height="32" viewBox="0 0 36 32" fill="none" xmlns="http://www.w3.org/2000/svg">
<path d="M17.7738 13.8293C14.7179 13.8293 11.6621 13.8353 8.60429 13.8274C7.06348 13.8234 5.7527 13.2939 4.82663 12.0228C3.85495 10.6902 3.67449 9.2208 4.33286 7.71569C4.9813 6.23635 6.14732 5.31227 7.77142 5.14966C8.61817 5.06439 9.07228 4.87402 9.44112 3.96381C10.4564 1.46718 12.4613 0.114763 15.1582 0.00569688C17.05 -0.071641 18.7157 0.640264 20.0404 2.03036C20.2545 2.25444 20.4152 2.31195 20.7146 2.21478C23.0665 1.45925 25.5056 2.46663 26.63 4.6539C26.7747 4.93549 26.9334 5.05051 27.2645 5.06835C28.9858 5.15957 30.3263 5.90717 31.1592 7.45988C32.5572 10.0676 30.8181 13.399 27.8793 13.7441C27.439 13.7956 26.9909 13.8254 26.5487 13.8274C23.6237 13.8353 20.7007 13.8313 17.7758 13.8313L17.7738 13.8293ZM17.8075 11.8721C20.9783 11.8721 24.1492 11.882 27.3201 11.8681C28.5951 11.8622 29.5589 10.9976 29.7017 9.7939C29.8524 8.53071 29.1048 7.39444 27.8694 7.11682C27.3617 7.0018 26.8223 7.02163 26.2968 7.00378C25.6087 6.97801 25.343 6.83721 25.1744 6.18876C24.6945 4.33662 22.4537 3.19836 20.6452 4.41792C20.09 4.79271 19.6477 4.66183 19.2194 4.13435C19.1163 4.00545 19.0191 3.87061 18.922 3.73973C17.4446 1.75076 14.5653 1.372 12.6298 2.891C11.6284 3.67627 11.0712 4.6896 10.8649 5.93295C10.7202 6.8035 10.4525 6.99784 9.55812 7.0018C9.19523 7.0018 8.83035 6.99387 8.46746 7.00378C7.2717 7.03551 6.29605 7.71966 6.00058 8.72108C5.51672 10.369 6.61135 11.8622 8.34451 11.8701C11.4995 11.886 14.6525 11.8741 17.8075 11.8741V11.8721Z" fill="white"/>
<path d="M5.89144 29.0748C4.50333 30.2369 3.00615 31.1134 1.25315 31.4961C0.608671 31.6369 0.174389 31.3831 0.0276453 30.7624C-0.0953021 30.2428 0.192236 29.8304 0.882328 29.6479C1.85203 29.3921 2.75827 29.0094 3.56139 28.4125C4.03732 28.0595 4.4954 27.6768 4.93761 27.2822C5.70702 26.5941 6.10759 26.6179 6.90675 27.2822C7.65237 27.9029 8.40988 28.5414 9.25465 28.9995C11.4776 30.2032 13.5876 29.7629 15.5607 28.3371C15.9751 28.0377 16.3658 27.7046 16.7425 27.3615C17.623 26.5584 18.0018 26.5544 18.8842 27.3813C19.8837 28.3173 20.9862 29.0669 22.3168 29.4714C23.8854 29.9474 25.333 29.6261 26.6815 28.823C27.4132 28.3887 28.0795 27.8315 28.7299 27.2762C29.5112 26.6119 29.9197 26.5782 30.6495 27.2663C31.8314 28.3828 33.1441 29.2612 34.7504 29.6539C35.379 29.8085 35.6844 30.227 35.607 30.689C35.5019 31.3236 35.024 31.6369 34.3815 31.4981C32.8011 31.155 31.4149 30.4173 30.1537 29.4238C30.0129 29.3128 29.8682 29.2057 29.6719 29.055C25.7554 32.5035 21.7993 32.5174 17.8491 29.0609C16.0485 30.4332 14.1983 31.6647 11.8603 31.6647C9.53624 31.6647 7.69203 30.461 5.89343 29.0748H5.89144Z" fill="white"/>
<path d="M8.8662 16.8415C8.78093 17.0359 8.70558 17.3135 8.55487 17.5396C7.30953 19.4274 6.05428 21.3093 4.79506 23.1872C4.42225 23.7425 3.88485 23.8714 3.3891 23.5501C2.94093 23.2606 2.83187 22.6915 3.18683 22.1481C4.46389 20.2028 5.75881 18.2673 7.05769 16.3359C7.31945 15.9472 7.69027 15.7667 8.17413 15.9254C8.58461 16.0582 8.77498 16.3597 8.8662 16.8396V16.8415Z" fill="white"/>
<path d="M11.1109 23.7167C10.2423 23.7385 9.77236 23.1357 9.97661 22.4892C10.0361 22.3048 10.1372 22.1263 10.2443 21.9637C11.4579 20.1354 12.6795 18.309 13.8951 16.4826C14.1667 16.0741 14.486 15.7687 15.0373 15.9115C15.6084 16.0602 15.8979 16.5659 15.7075 17.1231C15.65 17.2917 15.5568 17.4543 15.4577 17.603C14.2322 19.4453 13.0126 21.2915 11.7673 23.1178C11.5789 23.3954 11.2596 23.5838 11.1109 23.7167Z" fill="white"/>
<path d="M22.745 16.8555C22.6578 17.0518 22.5764 17.3254 22.4277 17.5535C21.1903 19.4274 19.943 21.2935 18.6937 23.1595C18.3011 23.7445 17.7617 23.8813 17.258 23.5442C16.8138 23.2467 16.7166 22.6875 17.0775 22.1382C18.3566 20.1929 19.6495 18.2575 20.9484 16.326C21.2101 15.9353 21.5909 15.7688 22.0688 15.9314C22.4753 16.0702 22.6637 16.3736 22.745 16.8535V16.8555Z" fill="white"/>
<path d="M24.9941 23.7167C24.1256 23.7405 23.6556 23.1376 23.8559 22.4912C23.9094 22.3206 23.9967 22.1561 24.0958 22.0053C25.3293 20.1492 26.5667 18.2971 27.8041 16.443C28.0698 16.0464 28.3911 15.7747 28.9166 15.9095C29.4877 16.0583 29.7792 16.5639 29.5888 17.1192C29.5313 17.2877 29.4401 17.4503 29.339 17.5991C28.1134 19.4413 26.8939 21.2875 25.6485 23.1138C25.4602 23.3915 25.1429 23.5799 24.9922 23.7147L24.9941 23.7167Z" fill="white"/>
</svg>
