<svg width="37" height="30" viewBox="0 0 37 30" fill="none" xmlns="http://www.w3.org/2000/svg">
<g clip-path="url(#clip0_12_311)">
<path d="M21.0679 1.79044C20.5656 1.13349 19.9743 0.647348 19.1922 0.472788C16.5696 -0.112834 13.9229 -0.107203 11.2762 0.228779C8.15688 0.624824 5.21363 1.60274 2.42052 3.06867C0.457735 4.09914 -0.294757 5.62138 0.101876 7.81184C0.663465 10.9145 1.22691 14.0172 1.73104 17.1292C2.01832 18.9124 2.65034 20.4984 3.93291 21.7729C6.09957 23.9258 8.69252 25.3186 11.6284 26.0393C12.4791 26.2495 13.3743 26.2758 14.2491 26.3847C13.8932 25.694 13.5133 25.1309 13.1111 24.5828C13.0407 24.4871 12.8776 24.4364 12.7497 24.4139C10.1215 23.9333 7.80473 22.8034 5.79376 21.0259C4.68355 20.0442 3.86248 18.8823 3.60671 17.377C3.03029 13.9759 2.45388 10.5766 1.88488 7.17553C1.7088 6.11691 2.04612 5.36987 2.97654 4.86495C6.7909 2.79463 10.8555 1.7285 15.1943 1.8918C17.1349 1.965 19.0699 2.1527 21.0679 1.79044ZM8.53312 12.097C9.85277 12.1102 10.9259 10.7775 11.3281 9.60061C11.4801 9.15764 11.2688 8.74095 10.8722 8.54386C10.4922 8.35616 10.0566 8.47629 9.77492 8.86671C9.55807 9.1689 9.37644 9.49738 9.14476 9.78831C8.737 10.3026 8.25882 10.4246 7.66943 10.1374C7.37103 9.99103 7.10969 9.76391 6.84465 9.55369C6.39797 9.19894 5.90311 9.17829 5.54725 9.5199C5.15988 9.89342 5.13023 10.4077 5.55652 10.8488C6.26267 11.5771 7.0893 12.0989 8.52942 12.0989L8.53312 12.097ZM11.7599 15.4155C11.139 15.6633 10.609 15.8341 10.116 16.0819C9.23928 16.5211 8.43119 17.0767 7.86218 17.9026C7.51559 18.4056 7.59344 18.8636 7.97895 19.1508C8.3867 19.453 8.84265 19.3666 9.27079 19.0137C9.86389 18.5257 10.5033 18.0959 11.1187 17.6341C11.2354 17.5478 11.4022 17.4502 11.4263 17.332C11.5524 16.7407 11.6376 16.1419 11.7581 15.4174L11.7599 15.4155Z" fill="white"/>
<path d="M21.9465 3.73148C26.9527 3.84785 31.1488 4.88583 35.0466 7.06502C36.5608 7.91154 37.2447 9.40751 36.9223 11.3314C36.3495 14.7476 35.7342 18.1543 35.13 21.5648C34.8112 23.3667 33.8604 24.7914 32.5333 25.987C30.2666 28.0292 27.644 29.3356 24.66 29.8874C23.0438 30.1858 21.5277 29.8799 20.1357 29.0052C17.35 27.2558 15.2242 24.9115 13.8637 21.8689C13.1131 20.1908 13.0835 18.4828 13.4263 16.6978C14.0213 13.6045 14.5328 10.4943 15.0759 7.38974C15.4002 5.53527 16.4919 4.38842 18.3268 4.11814C19.7132 3.91354 21.1125 3.81782 21.9484 3.73148H21.9465ZM22.1912 5.49585C21.1162 5.59533 20.0412 5.68543 18.9681 5.79429C17.7782 5.9163 17.1091 6.52257 16.9034 7.70695C16.3399 10.9354 15.8339 14.1732 15.226 17.3922C14.948 18.8619 15.1426 20.2096 15.7709 21.5291C16.9108 23.9204 18.6938 25.7317 20.8326 27.1977C21.9262 27.9466 23.1494 28.2507 24.4876 27.9973C27.0713 27.5074 29.3176 26.3267 31.2934 24.6037C32.3721 23.6633 33.1468 22.5146 33.4007 21.0618C33.9716 17.8033 34.5443 14.5448 35.1059 11.2826C35.3654 9.77164 34.9521 8.95703 33.6083 8.2738C30.0182 6.45124 26.2224 5.4996 22.1912 5.4921V5.49585Z" fill="white"/>
<path d="M21.0679 1.79044C19.0699 2.15082 17.1349 1.965 15.1944 1.8918C10.8555 1.7285 6.79091 2.79275 2.97655 4.86495C2.04799 5.36987 1.70881 6.11691 1.88488 7.17553C2.45203 10.5766 3.0303 13.9778 3.60672 17.377C3.86249 18.8823 4.68356 20.0442 5.79377 21.0259C7.80474 22.8034 10.1215 23.9352 12.7497 24.4139C12.8776 24.4364 13.0407 24.4871 13.1111 24.5828C13.5133 25.129 13.8933 25.694 14.2491 26.3847C13.3743 26.274 12.4791 26.2477 11.6284 26.0393C8.69253 25.3167 6.09958 23.924 3.93292 21.7729C2.65035 20.4984 2.02018 18.9124 1.73105 17.1292C1.22877 14.0153 0.663475 10.9126 0.101886 7.81184C-0.294748 5.62138 0.457744 4.10102 2.41867 3.07055C5.21364 1.60274 8.15689 0.624824 11.2762 0.228779C13.9229 -0.107203 16.5715 -0.112834 19.1922 0.472788C19.9744 0.647348 20.5656 1.13349 21.0679 1.79044Z" fill="white"/>
<path d="M8.53319 12.0973C7.09308 12.0973 6.26645 11.5754 5.56029 10.8472C5.134 10.4061 5.16366 9.89178 5.55102 9.51826C5.90503 9.17665 6.40175 9.1973 6.84842 9.55205C7.11161 9.76227 7.3748 9.98939 7.6732 10.1358C8.26259 10.4249 8.74077 10.3028 9.14853 9.78667C9.37835 9.49574 9.55999 9.16726 9.77869 8.86507C10.0604 8.47465 10.496 8.35453 10.8759 8.54222C11.2726 8.73931 11.4838 9.156 11.3319 9.59897C10.9278 10.7758 9.85654 12.1085 8.5369 12.0954L8.53319 12.0973Z" fill="white"/>
<path d="M11.7585 15.4139C11.638 16.1365 11.5528 16.7372 11.4267 17.3284C11.4008 17.4467 11.234 17.5443 11.119 17.6306C10.5037 18.0905 9.86428 18.5222 9.27118 19.0102C8.84304 19.3631 8.38524 19.4494 7.97934 19.1472C7.59383 18.8601 7.51598 18.4039 7.86257 17.899C8.43158 17.0732 9.23967 16.5176 10.1163 16.0784C10.6094 15.8325 11.1394 15.6598 11.7603 15.412L11.7585 15.4139Z" fill="white"/>
<path d="M24.2613 24.9546C21.5646 24.7745 19.4758 23.5 18.1339 21.0205C17.526 19.898 17.3017 18.6855 17.3647 17.411C17.387 16.9624 17.5593 16.6227 17.9856 16.4631C18.4156 16.3017 18.7659 16.4556 19.0643 16.7841C21.1606 19.0872 23.8462 19.7948 26.8191 19.6803C27.9256 19.6371 28.9746 19.3255 29.9514 18.7887C30.3499 18.5691 30.7354 18.4978 31.1061 18.83C31.4749 19.1585 31.4452 19.562 31.3211 19.9919C30.4592 22.9763 28.2036 24.5774 25.2585 24.8702C24.9527 24.9002 24.645 24.9246 24.2613 24.9584V24.9546ZM19.6333 19.8192C20.4933 21.8144 22.0168 22.9012 24.1094 23.0927C25.9424 23.2616 27.9163 22.3963 28.4723 21.2832C25.3363 21.9346 22.4079 21.3959 19.6352 19.8192H19.6333Z" fill="white"/>
<path d="M28.9765 12.1836C30.8559 12.1367 32.0235 13.535 32.3701 14.7607C32.4924 15.1943 32.2793 15.5378 31.8938 15.7198C31.5064 15.9019 31.1302 15.8081 30.8522 15.474C30.6742 15.26 30.5408 15.0103 30.3832 14.7795C29.8087 13.9367 29.021 13.8016 28.2055 14.4078C28.0442 14.5279 27.9071 14.6781 27.7495 14.8001C27.3214 15.1342 26.8654 15.1211 26.5485 14.7757C26.1945 14.3909 26.1815 13.8616 26.554 13.4693C27.2695 12.7166 28.1035 12.1911 28.9765 12.1836Z" fill="white"/>
<path d="M21.0179 10.7045C22.3523 10.7045 23.8703 11.9959 24.0946 13.321C24.1706 13.7696 23.9722 14.0887 23.5867 14.2652C23.2049 14.4416 22.8583 14.3327 22.6044 13.9949C22.4469 13.7847 22.3227 13.5482 22.1763 13.3285C21.5591 12.4144 20.6787 12.3056 19.8576 13.0376C19.7427 13.1408 19.6371 13.2572 19.5129 13.3492C19.0662 13.6795 18.6344 13.657 18.3119 13.2948C17.9801 12.925 17.9542 12.3957 18.3119 12.0203C19.0477 11.2432 19.9095 10.7026 21.0216 10.7045H21.0179Z" fill="white"/>
</g>
<defs>
<clipPath id="clip0_12_311">
<rect width="37" height="30" fill="white"/>
</clipPath>
</defs>
</svg>
