<svg width="36" height="29" viewBox="0 0 36 29" fill="none" xmlns="http://www.w3.org/2000/svg">
<g clip-path="url(#clip0_12_328)">
<path d="M11.6841 23.557C11.6841 25.0854 11.6895 26.552 11.6823 28.0187C11.6769 28.7765 11.117 29.1781 10.4436 28.9201C10.0348 28.7638 9.9088 28.4203 9.9088 28.0114C9.9088 26.7083 9.9088 25.4071 9.9088 24.104C9.9088 23.9404 9.9088 23.7769 9.9088 23.557H9.39385C6.87309 23.557 4.35234 23.5642 1.83158 23.5497C1.49488 23.5479 1.12757 23.5079 0.830482 23.3661C-0.0607853 22.9354 -0.262446 21.8995 0.369544 21.0563C1.26441 19.8604 2.18269 18.6827 3.09196 17.496C3.37465 17.1252 3.65733 16.7563 3.98323 16.3311C3.58171 16.2947 3.2288 16.2929 2.8903 16.2238C1.74516 15.993 1.31663 14.7063 2.09446 13.8103C3.14238 12.6036 4.2155 11.4168 5.27602 10.221C5.33543 10.1556 5.38765 10.0829 5.47948 9.96839C5.13557 9.93023 4.82948 9.9175 4.53239 9.85935C3.41606 9.64126 2.93891 8.39817 3.66633 7.52219C5.58211 5.2123 7.51589 2.91694 9.46227 0.632489C10.1771 -0.207143 11.4015 -0.212595 12.1199 0.623402C14.059 2.87514 15.9748 5.14687 17.896 7.41315C18.2759 7.86204 18.393 8.38727 18.1697 8.93793C17.9212 9.55403 17.4333 9.87389 16.7761 9.9175C16.5834 9.93023 16.3871 9.91932 16.0757 9.91932C16.2251 10.0974 16.3097 10.2028 16.4016 10.3028C17.4099 11.4041 18.4218 12.5018 19.4247 13.6068C20.044 14.2883 20.0981 15.0171 19.6047 15.7004C19.2896 16.1366 18.8323 16.2475 18.3425 16.282C18.1247 16.2983 17.905 16.2838 17.6061 16.2838C17.7448 16.4837 17.8312 16.6182 17.9284 16.7436C19.0195 18.1702 20.1179 19.5896 21.2036 21.0199C21.7672 21.765 21.7131 22.5465 21.0938 23.1444C20.7283 23.497 20.2745 23.5552 19.801 23.5552C17.2802 23.5552 14.7595 23.5552 12.2387 23.5552H11.6841V23.557ZM5.41646 8.13102C6.17629 8.13102 6.81368 8.13102 7.45287 8.13102C7.84899 8.13102 8.15868 8.29095 8.33153 8.65079C8.50078 8.99973 8.41076 9.33049 8.19109 9.63036C8.10286 9.75212 7.99483 9.85935 7.894 9.97203C6.65703 11.3332 5.41826 12.6945 4.18129 14.0557C4.07506 14.172 3.97963 14.2992 3.81938 14.4937C4.2173 14.4937 4.52699 14.4937 4.83488 14.4937C5.16438 14.4937 5.49568 14.481 5.82518 14.4991C6.5436 14.5373 6.92711 15.2279 6.59221 15.8713C6.53099 15.9912 6.44097 16.0966 6.35814 16.2038C5.03474 17.9085 3.71135 19.6114 2.38795 21.3161C2.29252 21.4397 2.20069 21.5669 2.07466 21.7341H9.9034C9.9034 21.2235 9.9034 20.7418 9.9034 20.2584C9.9034 17.4869 9.9034 14.7154 9.9034 11.9439C9.9034 11.5077 9.98983 11.1206 10.4418 10.9461C11.1314 10.6808 11.6787 11.097 11.6805 11.893C11.6841 14.9971 11.6805 18.1012 11.6805 21.2071C11.6805 21.3816 11.6805 21.5578 11.6805 21.725H19.5147C19.3526 21.5142 19.2356 21.3616 19.1168 21.2107C17.8024 19.5187 16.4808 17.8322 15.1844 16.1275C15.0151 15.9058 14.8927 15.5805 14.8981 15.306C14.9089 14.7863 15.2852 14.5028 15.847 14.4937C16.4646 14.4846 17.0822 14.4919 17.7952 14.4919C17.5179 14.1811 17.3288 13.9666 17.1362 13.7558C15.9298 12.4273 14.7198 11.1006 13.5135 9.77211C13.2524 9.48497 13.0309 9.17783 13.2092 8.7562C13.3965 8.31094 13.762 8.1401 14.2157 8.13102C14.6802 8.12193 15.1466 8.1292 15.6111 8.1292C15.7642 8.1292 15.9154 8.1292 16.1729 8.1292C14.3291 5.95561 12.5718 3.88379 10.7929 1.78653C8.99413 3.90742 7.24941 5.96651 5.41466 8.1292L5.41646 8.13102Z" fill="white"/>
<path d="M30.4613 9.92114C31.4912 11.0625 32.4293 12.102 33.3692 13.1415C33.5402 13.3324 33.7167 13.5177 33.8841 13.714C34.2803 14.1756 34.4999 14.6736 34.246 15.2933C33.9796 15.9439 33.4844 16.2402 32.8146 16.282C32.5787 16.2965 32.3411 16.2838 32.008 16.2838C32.1484 16.4801 32.2366 16.6091 32.3303 16.7345C33.4214 18.1612 34.5215 19.5805 35.6055 21.0126C36.2644 21.885 36.0862 22.9173 35.1787 23.3625C34.8834 23.5079 34.5143 23.5479 34.1776 23.5497C31.6713 23.5642 29.1649 23.557 26.6586 23.557C26.4947 23.557 26.3309 23.557 26.0932 23.557C26.0932 23.7369 26.0932 23.8968 26.0932 24.0549C26.0932 25.3725 26.0986 26.6901 26.0914 28.0077C26.086 28.771 25.526 29.2036 24.8688 28.9037C24.6384 28.7983 24.4925 28.4803 24.3341 28.2422C24.2837 28.1677 24.3161 28.035 24.3161 27.9296C24.3161 22.5974 24.3161 17.2652 24.3161 11.933C24.3161 11.1024 24.8598 10.6717 25.562 10.948C26.0122 11.1261 26.095 11.5132 26.0932 11.9512C26.0896 15.0262 26.0932 18.1012 26.0932 21.1762C26.0932 21.3543 26.0932 21.5324 26.0932 21.736H33.9111C33.7869 21.5633 33.6987 21.4306 33.6014 21.3052C32.2781 19.6005 30.9529 17.8976 29.6313 16.1911C29.5304 16.0603 29.426 15.9258 29.363 15.7749C29.1019 15.1443 29.498 14.5209 30.1858 14.4991C30.8142 14.4791 31.4444 14.4955 32.1826 14.4955C32.0314 14.3138 31.9396 14.192 31.8369 14.0775C30.5585 12.6708 29.2802 11.266 28.0018 9.85935C27.7137 9.54312 27.413 9.22145 27.6291 8.73802C27.8541 8.23461 28.2863 8.12193 28.7832 8.1292C29.3378 8.13647 29.8923 8.1292 30.5801 8.1292C28.7598 5.98105 27.0043 3.91105 25.2217 1.80833C25.1101 1.92646 25.0165 2.01552 24.9354 2.11547C23.9145 3.36583 22.9008 4.62346 21.8727 5.86837C21.3974 6.44266 20.7528 6.39905 20.3837 5.79022C20.1784 5.45219 20.2036 5.11961 20.4485 4.82156C21.6171 3.40036 22.773 1.96463 23.9776 0.574331C24.7068 -0.267118 25.9203 -0.165344 26.6964 0.750617C28.3745 2.72975 30.0418 4.71797 31.7127 6.70437C31.9269 6.9588 32.1484 7.20597 32.3501 7.46949C32.7084 7.93837 32.8038 8.46723 32.5517 9.00518C32.2907 9.5613 31.8459 9.90115 31.2085 9.91932C31.0015 9.92477 30.7962 9.91932 30.4613 9.91932V9.92114Z" fill="white"/>
</g>
<defs>
<clipPath id="clip0_12_328">
<rect width="36" height="29" fill="white"/>
</clipPath>
</defs>
</svg>
