<svg width="35" height="27" viewBox="0 0 35 27" fill="none" xmlns="http://www.w3.org/2000/svg">
<g clip-path="url(#clip0_12_343)">
<path d="M12.9613 25.3286C14.2394 25.3286 15.4875 25.3286 16.7356 25.3286C17.5741 25.3286 18.4127 25.3235 19.2512 25.3337C19.3854 25.3337 19.5531 25.371 19.6449 25.4525C20.2028 25.948 20.7447 26.4604 21.3008 26.9762H3.24826V12.7161C2.51917 13.3405 1.87658 13.8886 1.18985 14.474C0.797942 14.0633 0.416625 13.6629 0 13.2251C5.19192 8.81844 10.3627 4.43382 15.5899 0C19.5178 3.33088 23.4228 6.6431 27.3489 9.97228C26.5987 10.052 25.9031 10.142 25.2058 10.1861C25.0487 10.1963 24.8527 10.0758 24.7221 9.9655C21.8057 7.5 18.8946 5.02771 15.9836 2.55713C15.8635 2.45532 15.7435 2.3552 15.604 2.23982C15.4822 2.33145 15.378 2.40271 15.2809 2.48586C11.9762 5.29751 8.67497 8.11425 5.36139 10.9174C5.0807 11.155 4.97478 11.3908 4.97478 11.7489C4.98714 16.0911 4.98361 20.4333 4.98361 24.7754C4.98361 24.9417 4.98361 25.1097 4.98361 25.3032H11.1659V15.1816H18.2997C18.1232 15.6736 17.959 16.181 17.7507 16.6714C17.7136 16.7596 17.4912 16.8139 17.3517 16.8156C16.0577 16.8258 14.7619 16.8224 13.4679 16.8224C13.309 16.8224 13.1484 16.8224 12.9595 16.8224V25.332L12.9613 25.3286Z" fill="white"/>
<path d="M35.0001 19.3982C34.9965 23.6046 31.4693 26.9881 27.0771 27C22.6637 27.0119 19.1277 23.5978 19.1348 19.332C19.1418 15.1374 22.7043 11.737 27.0807 11.7522C31.4941 11.7675 35.0054 15.1561 35.0018 19.3982H35.0001ZM20.8754 19.371C20.8754 22.6765 23.6364 25.3303 27.0718 25.3269C30.4896 25.3235 33.2559 22.6748 33.2576 19.4033C33.2612 16.086 30.5213 13.4355 27.0824 13.4253C23.647 13.4151 20.8737 16.0707 20.8737 19.371H20.8754Z" fill="white"/>
<path d="M26.1804 22.6205C25.0594 21.5396 23.9384 20.4604 22.8403 19.4033C23.2181 19.0554 23.6242 18.6804 24.0461 18.2919C24.671 18.9095 25.3736 19.6052 26.0762 20.2975C27.4391 18.9655 28.7331 17.7014 30.0042 16.4593C30.4967 16.9429 30.8921 17.3315 31.2893 17.7217C29.6299 19.3117 27.9069 20.9661 26.1822 22.6188L26.1804 22.6205Z" fill="white"/>
</g>
<defs>
<clipPath id="clip0_12_343">
<rect width="35" height="27" fill="white"/>
</clipPath>
</defs>
</svg>
