<svg width="30" height="35" viewBox="0 0 30 35" fill="none" xmlns="http://www.w3.org/2000/svg">
<g clip-path="url(#clip0_12_219)">
<path d="M8.28899 19.473V24.8655H0.00450124C0.00450124 24.7548 0.00450124 24.6469 0.00450124 24.539C0.00450124 22.2054 -0.00501179 19.8719 0.00721924 17.537C0.0235273 14.3947 2.18978 11.7907 5.2652 11.2387C5.8387 11.1363 6.43666 11.1527 7.02375 11.1417C7.85003 11.1267 8.67766 11.1417 9.50393 11.1335C9.62624 11.1322 9.78932 11.1007 9.86407 11.0188C10.8561 9.93535 12.067 9.25497 13.5008 8.96533C13.5334 8.9585 13.5633 8.94211 13.6244 8.91888C13.6244 8.38332 13.6312 7.83956 13.6163 7.2958C13.6149 7.22613 13.5171 7.13732 13.4437 7.0936C13.0686 6.86544 12.6908 6.63728 12.3021 6.43508C12.1893 6.37633 12.0235 6.3654 11.8999 6.39819C10.3778 6.80123 8.8421 7.13322 7.26973 7.26711C5.7558 7.39554 4.54629 6.84358 3.74991 5.5443C2.96849 4.26961 2.98751 2.93617 3.79748 1.67788C4.62511 0.38816 5.86452 -0.169261 7.35535 0.0452369C8.88559 0.263833 10.3968 0.619052 11.9189 0.899129C12.0589 0.925087 12.2546 0.890931 12.3646 0.806225C13.7549 -0.267629 15.5243 -0.266263 16.9241 0.808958C17.0342 0.893664 17.2312 0.92782 17.3726 0.900495C18.8946 0.619052 20.4059 0.262467 21.9347 0.0411382C23.8971 -0.243037 25.6965 1.0904 26.0172 2.9635C26.3569 4.94863 25.1678 6.75478 23.2244 7.20427C22.4552 7.38188 21.686 7.27668 20.9318 7.13459C19.7332 6.90916 18.5454 6.62362 17.3495 6.37907C17.2258 6.35311 17.0681 6.39683 16.9526 6.45831C16.583 6.65231 16.2228 6.86134 15.8681 7.08131C15.7812 7.13459 15.6779 7.24935 15.6752 7.33816C15.6575 7.86005 15.6657 8.38332 15.6657 8.91888C16.0271 9.02135 16.3764 9.10469 16.7162 9.21945C17.7327 9.56647 18.5997 10.1471 19.335 10.9327C19.4138 11.0174 19.5279 11.1267 19.6258 11.1281C20.8584 11.1417 22.091 11.1363 23.3304 11.1363C23.5995 10.0692 24.207 9.32192 25.2466 9.00222C25.5755 8.90112 25.9356 8.88746 26.2835 8.87516C26.8353 8.85467 27.3871 8.8697 27.9701 8.8697V6.73565H29.9991V24.1728H27.9891V22.0552C27.3218 22.0552 26.7021 22.0647 26.0824 22.0538C24.8022 22.0319 23.7436 21.2272 23.4038 20.029C23.3549 19.8555 23.325 19.6766 23.2815 19.473C22.197 19.473 21.1112 19.4866 20.0253 19.4662C19.6516 19.4593 19.3866 19.5563 19.1121 19.8323C16.5939 22.3612 12.5182 22.2983 10.0394 19.7066C9.8763 19.5358 9.72002 19.4566 9.48355 19.4689C9.10167 19.488 8.71843 19.4743 8.28763 19.4743L8.28899 19.473ZM6.26407 17.4605C6.31843 17.4441 6.34969 17.4264 6.38095 17.4264C7.8079 17.4236 9.23485 17.4195 10.6604 17.4305C10.7597 17.4305 10.8779 17.522 10.9526 17.604C11.2271 17.9046 11.4568 18.2543 11.7572 18.5235C13.7087 20.2736 16.6224 19.9348 18.1948 17.7734C18.3809 17.5179 18.5603 17.4086 18.8824 17.4141C20.2292 17.4346 21.5773 17.4236 22.9241 17.4236H23.2788V13.1897H22.8942C21.5692 13.1897 20.2441 13.1788 18.9205 13.1979C18.6011 13.202 18.4136 13.1077 18.2315 12.8427C17.4296 11.6787 16.318 11.0133 14.906 10.9368C13.2589 10.848 11.9624 11.527 11.0233 12.8823C10.8616 13.1146 10.6958 13.2006 10.4158 13.1965C9.1139 13.1801 7.81198 13.1897 6.50869 13.1897C3.92387 13.1897 2.04708 15.0669 2.04301 17.6586C2.04029 19.2517 2.04301 20.846 2.04301 22.4391C2.04301 22.5607 2.04301 22.6823 2.04301 22.8066H6.26271V17.4619L6.26407 17.4605ZM27.9633 10.9218C27.3463 10.9218 26.7701 10.919 26.1939 10.9218C25.6027 10.9259 25.3418 11.1855 25.339 11.7729C25.3363 12.6036 25.339 13.4343 25.339 14.2649C25.339 15.903 25.3377 17.5411 25.339 19.1806C25.339 19.6369 25.5551 19.958 25.9587 19.9799C26.6206 20.0167 27.2851 19.9894 27.9633 19.9894V10.9218ZM11.0505 2.79955C9.70235 2.4457 8.31345 2.13556 6.88785 2.06179C5.95829 2.01397 5.21764 2.77359 5.23938 3.67667C5.26249 4.59751 6.04935 5.30521 6.98298 5.23417C7.32138 5.20821 7.66113 5.18088 7.99408 5.1194C9.02421 4.93223 10.0516 4.7273 11.0505 4.53603V2.79818V2.79955ZM18.2016 4.46635C19.0795 4.76828 21.5379 5.2205 22.3886 5.24236C23.1225 5.26149 23.7789 4.78604 23.9773 4.09473C24.1798 3.38976 23.8822 2.64107 23.2557 2.27082C22.886 2.05222 22.4851 2.01397 22.0734 2.07272C21.3354 2.17792 20.5961 2.28312 19.8623 2.41837C19.301 2.52221 18.7479 2.67249 18.1988 2.79955C18.226 3.11515 18.2654 3.37473 18.2641 3.63432C18.2641 3.90483 18.2247 4.17671 18.2002 4.46498L18.2016 4.46635ZM14.6342 2.05359C13.7739 2.05769 13.0604 2.77223 13.0537 3.63705C13.0482 4.51007 13.7821 5.2492 14.6491 5.24236C15.508 5.23553 16.2228 4.5169 16.2283 3.65481C16.2337 2.77632 15.5094 2.04949 14.6328 2.05359H14.6342Z" fill="white"/>
<path d="M4.09213 25.9884C5.42123 27.4202 6.72859 28.8329 7.27491 30.7442C7.65815 32.0831 7.28714 33.2595 6.24343 34.1639C5.20923 35.0588 4.00243 35.2391 2.75487 34.6844C1.49507 34.1243 0.826442 33.0969 0.772082 31.7129C0.755774 31.303 0.837314 30.8658 0.975933 30.4778C1.60379 28.7113 2.80787 27.341 4.09213 25.9898V25.9884ZM4.09213 29.0897C3.57435 29.781 3.09326 30.4642 2.85815 31.2853C2.70051 31.8386 2.90844 32.3837 3.35691 32.6966C3.81353 33.0135 4.40198 33.004 4.84773 32.6734C5.29485 32.3414 5.47016 31.8154 5.30436 31.2497C5.07061 30.4505 4.59088 29.7879 4.09077 29.0897H4.09213Z" fill="white"/>
</g>
<defs>
<clipPath id="clip0_12_219">
<rect width="30" height="35" fill="white"/>
</clipPath>
</defs>
</svg>
